# xmcd
#
# Track frame offsets:
#	150
#	17514
#	41744
#	65374
#	85723
#	100872
#	123650
#	146097
#	164056
#	180635
#	204413
#
# Disc length: 3043 seconds
#
# Revision: 0
# Processed by: cddbd v1.5.2PL0 Copyright (c) Steve Scherf et al.
# Submitted via: audiograbber 1.81.03
#
DISCID=960be10b
DTITLE=Sons Of Bill - A`Far Cry From Freedom
DYEAR=2006
DGENRE=Country
TTITLE0=Back To The Time
TTITLE1=Far Cry
TTITLE2=My Hometown
TTITLE3=Texas
TTITLE4=Roll On Jordon
TTITLE5=Making It Through The Night
TTITLE6=Whispering
TTITLE7=Ballad Of Middle-Aged Heartache
TTITLE8=Too Far Gone
TTITLE9=Savannah Rain
TTITLE10=Metaphysical Gingham Gown
EXTD=
EXTT0=
EXTT1=
EXTT2=
EXTT3=
EXTT4=
EXTT5=
EXTT6=
EXTT7=
EXTT8=
EXTT9=
EXTT10=
PLAYORDER=
